<?xml version="1.0" encoding="utf-8"?>
<!-- Generator: Adobe Illustrator 16.0.3, SVG Export Plug-In . SVG Version: 6.00 Build 0)  -->
<!DOCTYPE svg PUBLIC "-//W3C//DTD SVG 1.1//EN" "http://www.w3.org/Graphics/SVG/1.1/DTD/svg11.dtd">
<svg version="1.1" id="Layer_1" xmlns="http://www.w3.org/2000/svg" xmlns:xlink="http://www.w3.org/1999/xlink" x="0px" y="0px"
	 width="250.312px" height="250.312px" viewBox="0 0 250.312 250.312" enable-background="new 0 0 250.312 250.312"
	 xml:space="preserve">
<g>
	<defs>
		<rect id="SVGID_1_" width="250.312" height="250.312"/>
	</defs>
	<clipPath id="SVGID_2_">
		<use xlink:href="#SVGID_1_"  overflow="visible"/>
	</clipPath>
	<path clip-path="url(#SVGID_2_)" fill="#FFFFFF" d="M244.186,214.604l-54.379-54.378c-0.289-0.289-0.628-0.491-0.93-0.761
		c10.7-16.23,16.945-35.66,16.945-56.554C205.822,46.075,159.747,0,102.911,0S0,46.075,0,102.911s46.074,102.911,102.91,102.911
		c20.895,0,40.323-6.245,56.554-16.945c0.27,0.302,0.469,0.641,0.759,0.93l54.38,54.38c8.17,8.168,21.412,8.168,29.583,0
		C252.354,236.017,252.354,222.773,244.186,214.604 M102.911,170.146c-37.134,0-67.236-30.103-67.236-67.235
		c0-37.134,30.103-67.236,67.236-67.236c37.132,0,67.235,30.103,67.235,67.236S140.043,170.146,102.911,170.146"/>
</g>
</svg>
